<mxfile host="Electron" modified="2024-03-24T09:57:12.657Z" agent="Mozilla/5.0 (Windows NT 10.0; Win64; x64) AppleWebKit/537.36 (KHTML, like Gecko) draw.io/24.1.0 Chrome/120.0.6099.109 Electron/28.1.0 Safari/537.36" etag="Ly7JQqME9BxvEVcgrbkx" version="24.1.0" type="device">
  <diagram name="第 1 页" id="j6NEsvgVE1OPwoL9Sd1g">
    <mxGraphModel dx="1018" dy="598" grid="1" gridSize="10" guides="1" tooltips="1" connect="1" arrows="1" fold="1" page="1" pageScale="1" pageWidth="827" pageHeight="1169" math="0" shadow="0">
      <root>
        <mxCell id="0" />
        <mxCell id="1" parent="0" />
        <mxCell id="NUbXyAO43KxDZE8FnAZ2-85" style="edgeStyle=elbowEdgeStyle;rounded=1;orthogonalLoop=1;jettySize=auto;html=1;exitX=0.753;exitY=1.005;exitDx=0;exitDy=0;elbow=vertical;endArrow=none;endFill=0;exitPerimeter=0;strokeColor=#999999;" edge="1" parent="1" source="NUbXyAO43KxDZE8FnAZ2-70">
          <mxGeometry relative="1" as="geometry">
            <mxPoint x="584.7999999999997" y="504.86" as="sourcePoint" />
            <mxPoint x="230" y="420" as="targetPoint" />
            <Array as="points">
              <mxPoint x="400" y="540" />
            </Array>
          </mxGeometry>
        </mxCell>
        <mxCell id="NUbXyAO43KxDZE8FnAZ2-87" style="edgeStyle=elbowEdgeStyle;rounded=1;orthogonalLoop=1;jettySize=auto;html=1;exitX=0.753;exitY=1.005;exitDx=0;exitDy=0;elbow=vertical;endArrow=none;endFill=0;exitPerimeter=0;strokeColor=#999999;" edge="1" parent="1">
          <mxGeometry relative="1" as="geometry">
            <mxPoint x="760" y="520" as="sourcePoint" />
            <mxPoint x="430" y="420" as="targetPoint" />
            <Array as="points">
              <mxPoint x="600" y="560" />
            </Array>
          </mxGeometry>
        </mxCell>
        <mxCell id="NUbXyAO43KxDZE8FnAZ2-46" value="" style="rounded=0;whiteSpace=wrap;html=1;verticalAlign=middle;align=center;fontFamily=Courier New, 宋体;" vertex="1" parent="1">
          <mxGeometry x="120" y="480" width="80" height="40" as="geometry" />
        </mxCell>
        <mxCell id="NUbXyAO43KxDZE8FnAZ2-1" value="" style="rounded=0;whiteSpace=wrap;html=1;shadow=0;labelBackgroundColor=none;strokeColor=#000000;fillColor=#FFFFFF;fontFamily=Courier New, 宋体;fontSize=24;verticalAlign=middle;align=center;" vertex="1" parent="1">
          <mxGeometry x="40" y="320" width="160" height="40" as="geometry" />
        </mxCell>
        <mxCell id="NUbXyAO43KxDZE8FnAZ2-2" value="" style="edgeStyle=elbowEdgeStyle;elbow=vertical;endArrow=classic;html=1;fontFamily=Courier New, 宋体;fontSize=24;verticalAlign=middle;align=center;" edge="1" parent="1" source="NUbXyAO43KxDZE8FnAZ2-1" target="NUbXyAO43KxDZE8FnAZ2-18">
          <mxGeometry width="50" height="50" relative="1" as="geometry">
            <mxPoint x="220" y="320" as="sourcePoint" />
            <mxPoint x="270" y="270" as="targetPoint" />
          </mxGeometry>
        </mxCell>
        <mxCell id="NUbXyAO43KxDZE8FnAZ2-3" value="" style="edgeStyle=elbowEdgeStyle;endArrow=classic;html=1;fontFamily=Courier New, 宋体;fontSize=24;exitX=1;exitY=0.5;exitDx=0;exitDy=0;entryX=0;entryY=0.167;entryDx=0;entryDy=0;entryPerimeter=0;verticalAlign=middle;align=center;" edge="1" parent="1" source="NUbXyAO43KxDZE8FnAZ2-19">
          <mxGeometry width="50" height="50" relative="1" as="geometry">
            <mxPoint x="240" y="460" as="sourcePoint" />
            <mxPoint x="240" y="420.03999999999996" as="targetPoint" />
          </mxGeometry>
        </mxCell>
        <mxCell id="NUbXyAO43KxDZE8FnAZ2-4" value="" style="edgeStyle=elbowEdgeStyle;endArrow=classic;html=1;fontFamily=Courier New, 宋体;fontSize=24;entryX=0;entryY=0.167;entryDx=0;entryDy=0;entryPerimeter=0;verticalAlign=middle;align=center;" edge="1" parent="1" source="NUbXyAO43KxDZE8FnAZ2-58">
          <mxGeometry width="50" height="50" relative="1" as="geometry">
            <mxPoint x="400" y="480" as="sourcePoint" />
            <mxPoint x="440" y="420.03999999999996" as="targetPoint" />
          </mxGeometry>
        </mxCell>
        <mxCell id="NUbXyAO43KxDZE8FnAZ2-5" value="" style="edgeStyle=elbowEdgeStyle;endArrow=classic;html=1;fontFamily=Courier New, 宋体;fontSize=24;entryX=0;entryY=0.167;entryDx=0;entryDy=0;entryPerimeter=0;verticalAlign=middle;align=center;" edge="1" parent="1" source="NUbXyAO43KxDZE8FnAZ2-66">
          <mxGeometry width="50" height="50" relative="1" as="geometry">
            <mxPoint x="599.9999999999998" y="480" as="sourcePoint" />
            <mxPoint x="640" y="420.03999999999996" as="targetPoint" />
          </mxGeometry>
        </mxCell>
        <mxCell id="NUbXyAO43KxDZE8FnAZ2-6" value="..." style="text;html=1;align=center;verticalAlign=middle;resizable=0;points=[];autosize=1;fontSize=12;fontFamily=Courier New, 宋体;labelBackgroundColor=#ffffff;" vertex="1" parent="1">
          <mxGeometry x="595" y="425" width="50" height="30" as="geometry" />
        </mxCell>
        <mxCell id="NUbXyAO43KxDZE8FnAZ2-10" value="LinkList（双向循环）" style="shape=table;html=1;whiteSpace=wrap;startSize=40;container=1;collapsible=0;childLayout=tableLayout;fontStyle=1;align=center;shadow=0;labelBackgroundColor=none;strokeColor=#000000;fillColor=#FFFFFF;fontFamily=Courier New, 宋体;fontSize=24;verticalAlign=middle;" vertex="1" parent="1">
          <mxGeometry x="40" y="280" width="320" height="80" as="geometry" />
        </mxCell>
        <mxCell id="NUbXyAO43KxDZE8FnAZ2-11" value="" style="shape=partialRectangle;html=1;whiteSpace=wrap;collapsible=0;dropTarget=0;pointerEvents=0;fillColor=none;top=0;left=0;bottom=0;right=0;points=[[0,0.5],[1,0.5]];portConstraint=eastwest;fontSize=24;fontFamily=Courier New, 宋体;verticalAlign=middle;align=center;" vertex="1" parent="NUbXyAO43KxDZE8FnAZ2-10">
          <mxGeometry y="40" width="320" height="40" as="geometry" />
        </mxCell>
        <mxCell id="NUbXyAO43KxDZE8FnAZ2-12" value="*top" style="shape=partialRectangle;html=1;whiteSpace=wrap;connectable=0;fillColor=none;top=0;left=0;bottom=0;right=0;overflow=hidden;fontSize=24;fontFamily=Courier New, 宋体;verticalAlign=middle;align=center;" vertex="1" parent="NUbXyAO43KxDZE8FnAZ2-11">
          <mxGeometry width="160" height="40" as="geometry">
            <mxRectangle width="160" height="40" as="alternateBounds" />
          </mxGeometry>
        </mxCell>
        <mxCell id="NUbXyAO43KxDZE8FnAZ2-13" value="length" style="shape=partialRectangle;html=1;whiteSpace=wrap;connectable=0;fillColor=none;top=0;left=0;bottom=0;right=0;overflow=hidden;fontSize=24;fontFamily=Courier New, 宋体;verticalAlign=middle;align=center;" vertex="1" parent="NUbXyAO43KxDZE8FnAZ2-11">
          <mxGeometry x="160" width="160" height="40" as="geometry">
            <mxRectangle width="160" height="40" as="alternateBounds" />
          </mxGeometry>
        </mxCell>
        <mxCell id="NUbXyAO43KxDZE8FnAZ2-18" value="Node(top)" style="shape=table;html=1;whiteSpace=wrap;startSize=40;container=1;collapsible=0;childLayout=tableLayout;fontStyle=1;align=center;shadow=0;labelBackgroundColor=none;strokeColor=#000000;fillColor=#FFFFFF;fontFamily=Courier New, 宋体;fontSize=24;verticalAlign=middle;" vertex="1" parent="1">
          <mxGeometry x="40" y="400" width="160" height="120" as="geometry" />
        </mxCell>
        <mxCell id="NUbXyAO43KxDZE8FnAZ2-19" value="" style="shape=partialRectangle;html=1;whiteSpace=wrap;collapsible=0;dropTarget=0;pointerEvents=0;fillColor=none;top=0;left=0;bottom=0;right=0;points=[[0,0.5],[1,0.5]];portConstraint=eastwest;fontFamily=Courier New, 宋体;fontSize=24;verticalAlign=middle;align=center;" vertex="1" parent="NUbXyAO43KxDZE8FnAZ2-18">
          <mxGeometry y="40" width="160" height="40" as="geometry" />
        </mxCell>
        <mxCell id="NUbXyAO43KxDZE8FnAZ2-20" value="" style="group;fontFamily=Courier New, 宋体;rowspan=2;colspan=1;verticalAlign=middle;align=center;" vertex="1" connectable="0" parent="NUbXyAO43KxDZE8FnAZ2-19">
          <mxGeometry width="80" height="80" as="geometry">
            <mxRectangle width="80" height="40" as="alternateBounds" />
          </mxGeometry>
        </mxCell>
        <mxCell id="NUbXyAO43KxDZE8FnAZ2-21" value="data&lt;br&gt;&lt;font&gt;（空）&lt;/font&gt;" style="shape=partialRectangle;html=1;whiteSpace=wrap;connectable=0;fillColor=none;top=0;left=0;bottom=0;right=0;overflow=hidden;fontFamily=Courier New, 宋体;fontSize=24;verticalAlign=middle;align=center;" vertex="1" parent="NUbXyAO43KxDZE8FnAZ2-20">
          <mxGeometry width="80" height="80" as="geometry" />
        </mxCell>
        <mxCell id="NUbXyAO43KxDZE8FnAZ2-22" value="*next" style="group;fontFamily=Courier New, 宋体;verticalAlign=middle;fontSize=24;align=center;" vertex="1" connectable="0" parent="NUbXyAO43KxDZE8FnAZ2-19">
          <mxGeometry x="80" width="80" height="40" as="geometry">
            <mxRectangle width="80" height="40" as="alternateBounds" />
          </mxGeometry>
        </mxCell>
        <mxCell id="NUbXyAO43KxDZE8FnAZ2-40" style="shape=partialRectangle;html=1;whiteSpace=wrap;collapsible=0;dropTarget=0;pointerEvents=0;fillColor=none;top=0;left=0;bottom=0;right=0;points=[[0,0.5],[1,0.5]];portConstraint=eastwest;fontFamily=Courier New, 宋体;fontSize=24;verticalAlign=middle;align=center;" vertex="1" parent="NUbXyAO43KxDZE8FnAZ2-18">
          <mxGeometry y="80" width="160" height="40" as="geometry" />
        </mxCell>
        <mxCell id="NUbXyAO43KxDZE8FnAZ2-41" value="a" style="group;fontFamily=Courier New, 宋体;" vertex="1" connectable="0" visible="0" parent="NUbXyAO43KxDZE8FnAZ2-40">
          <mxGeometry width="80" height="40" as="geometry">
            <mxRectangle width="80" height="40" as="alternateBounds" />
          </mxGeometry>
        </mxCell>
        <mxCell id="NUbXyAO43KxDZE8FnAZ2-42" value="*last" style="group;fontFamily=Courier New, 宋体;fontSize=24;verticalAlign=middle;align=center;" vertex="1" connectable="0" parent="NUbXyAO43KxDZE8FnAZ2-40">
          <mxGeometry x="80" width="80" height="40" as="geometry">
            <mxRectangle width="80" height="40" as="alternateBounds" />
          </mxGeometry>
        </mxCell>
        <mxCell id="NUbXyAO43KxDZE8FnAZ2-56" value="" style="edgeStyle=orthogonalEdgeStyle;rounded=0;orthogonalLoop=1;jettySize=auto;html=1;verticalAlign=middle;align=center;fontFamily=Courier New, 宋体;strokeColor=#999999;" edge="1" parent="1" source="NUbXyAO43KxDZE8FnAZ2-46" target="NUbXyAO43KxDZE8FnAZ2-47">
          <mxGeometry relative="1" as="geometry" />
        </mxCell>
        <mxCell id="NUbXyAO43KxDZE8FnAZ2-47" value="NULL" style="text;html=1;align=center;verticalAlign=middle;resizable=0;points=[];autosize=1;strokeColor=none;fillColor=none;fontFamily=Courier New, 宋体;" vertex="1" parent="1">
          <mxGeometry x="135" y="560" width="50" height="30" as="geometry" />
        </mxCell>
        <mxCell id="NUbXyAO43KxDZE8FnAZ2-57" value="Node_0" style="shape=table;html=1;whiteSpace=wrap;startSize=40;container=1;collapsible=0;childLayout=tableLayout;fontStyle=1;align=center;shadow=0;labelBackgroundColor=none;strokeColor=#000000;fillColor=#FFFFFF;fontFamily=Courier New, 宋体;fontSize=24;verticalAlign=middle;" vertex="1" parent="1">
          <mxGeometry x="240" y="400" width="160" height="120" as="geometry" />
        </mxCell>
        <mxCell id="NUbXyAO43KxDZE8FnAZ2-58" value="" style="shape=partialRectangle;html=1;whiteSpace=wrap;collapsible=0;dropTarget=0;pointerEvents=0;fillColor=none;top=0;left=0;bottom=0;right=0;points=[[0,0.5],[1,0.5]];portConstraint=eastwest;fontFamily=Courier New, 宋体;fontSize=24;verticalAlign=middle;align=center;" vertex="1" parent="NUbXyAO43KxDZE8FnAZ2-57">
          <mxGeometry y="40" width="160" height="40" as="geometry" />
        </mxCell>
        <mxCell id="NUbXyAO43KxDZE8FnAZ2-59" value="" style="group;fontFamily=Courier New, 宋体;rowspan=2;colspan=1;verticalAlign=middle;align=center;" vertex="1" connectable="0" parent="NUbXyAO43KxDZE8FnAZ2-58">
          <mxGeometry width="80" height="80" as="geometry">
            <mxRectangle width="80" height="40" as="alternateBounds" />
          </mxGeometry>
        </mxCell>
        <mxCell id="NUbXyAO43KxDZE8FnAZ2-60" value="data&lt;br&gt;_0" style="shape=partialRectangle;html=1;whiteSpace=wrap;connectable=0;fillColor=none;top=0;left=0;bottom=0;right=0;overflow=hidden;fontFamily=Courier New, 宋体;fontSize=24;verticalAlign=middle;align=center;" vertex="1" parent="NUbXyAO43KxDZE8FnAZ2-59">
          <mxGeometry width="80" height="80" as="geometry" />
        </mxCell>
        <mxCell id="NUbXyAO43KxDZE8FnAZ2-61" value="*next" style="group;fontFamily=Courier New, 宋体;verticalAlign=middle;fontSize=24;align=center;" vertex="1" connectable="0" parent="NUbXyAO43KxDZE8FnAZ2-58">
          <mxGeometry x="80" width="80" height="40" as="geometry">
            <mxRectangle width="80" height="40" as="alternateBounds" />
          </mxGeometry>
        </mxCell>
        <mxCell id="NUbXyAO43KxDZE8FnAZ2-62" style="shape=partialRectangle;html=1;whiteSpace=wrap;collapsible=0;dropTarget=0;pointerEvents=0;fillColor=none;top=0;left=0;bottom=0;right=0;points=[[0,0.5],[1,0.5]];portConstraint=eastwest;fontFamily=Courier New, 宋体;fontSize=24;verticalAlign=middle;align=center;" vertex="1" parent="NUbXyAO43KxDZE8FnAZ2-57">
          <mxGeometry y="80" width="160" height="40" as="geometry" />
        </mxCell>
        <mxCell id="NUbXyAO43KxDZE8FnAZ2-63" value="a" style="group;fontFamily=Courier New, 宋体;" vertex="1" connectable="0" visible="0" parent="NUbXyAO43KxDZE8FnAZ2-62">
          <mxGeometry width="80" height="40" as="geometry">
            <mxRectangle width="80" height="40" as="alternateBounds" />
          </mxGeometry>
        </mxCell>
        <mxCell id="NUbXyAO43KxDZE8FnAZ2-64" value="*last" style="group;fontFamily=Courier New, 宋体;fontSize=24;verticalAlign=middle;align=center;" vertex="1" connectable="0" parent="NUbXyAO43KxDZE8FnAZ2-62">
          <mxGeometry x="80" width="80" height="40" as="geometry">
            <mxRectangle width="80" height="40" as="alternateBounds" />
          </mxGeometry>
        </mxCell>
        <mxCell id="NUbXyAO43KxDZE8FnAZ2-65" value="Node_1" style="shape=table;html=1;whiteSpace=wrap;startSize=40;container=1;collapsible=0;childLayout=tableLayout;fontStyle=1;align=center;shadow=0;labelBackgroundColor=none;strokeColor=#000000;fillColor=#FFFFFF;fontFamily=Courier New, 宋体;fontSize=24;verticalAlign=middle;" vertex="1" parent="1">
          <mxGeometry x="440" y="400" width="160" height="120" as="geometry" />
        </mxCell>
        <mxCell id="NUbXyAO43KxDZE8FnAZ2-66" value="" style="shape=partialRectangle;html=1;whiteSpace=wrap;collapsible=0;dropTarget=0;pointerEvents=0;fillColor=none;top=0;left=0;bottom=0;right=0;points=[[0,0.5],[1,0.5]];portConstraint=eastwest;fontFamily=Courier New, 宋体;fontSize=24;verticalAlign=middle;align=center;" vertex="1" parent="NUbXyAO43KxDZE8FnAZ2-65">
          <mxGeometry y="40" width="160" height="40" as="geometry" />
        </mxCell>
        <mxCell id="NUbXyAO43KxDZE8FnAZ2-67" value="" style="group;fontFamily=Courier New, 宋体;rowspan=2;colspan=1;verticalAlign=middle;align=center;" vertex="1" connectable="0" parent="NUbXyAO43KxDZE8FnAZ2-66">
          <mxGeometry width="80" height="80" as="geometry">
            <mxRectangle width="80" height="40" as="alternateBounds" />
          </mxGeometry>
        </mxCell>
        <mxCell id="NUbXyAO43KxDZE8FnAZ2-68" value="data&lt;br&gt;_1" style="shape=partialRectangle;html=1;whiteSpace=wrap;connectable=0;fillColor=none;top=0;left=0;bottom=0;right=0;overflow=hidden;fontFamily=Courier New, 宋体;fontSize=24;verticalAlign=middle;align=center;" vertex="1" parent="NUbXyAO43KxDZE8FnAZ2-67">
          <mxGeometry width="80" height="80" as="geometry" />
        </mxCell>
        <mxCell id="NUbXyAO43KxDZE8FnAZ2-69" value="*next" style="group;fontFamily=Courier New, 宋体;verticalAlign=middle;fontSize=24;align=center;" vertex="1" connectable="0" parent="NUbXyAO43KxDZE8FnAZ2-66">
          <mxGeometry x="80" width="80" height="40" as="geometry">
            <mxRectangle width="80" height="40" as="alternateBounds" />
          </mxGeometry>
        </mxCell>
        <mxCell id="NUbXyAO43KxDZE8FnAZ2-70" style="shape=partialRectangle;html=1;whiteSpace=wrap;collapsible=0;dropTarget=0;pointerEvents=0;fillColor=none;top=0;left=0;bottom=0;right=0;points=[[0,0.5],[1,0.5]];portConstraint=eastwest;fontFamily=Courier New, 宋体;fontSize=24;verticalAlign=middle;align=center;" vertex="1" parent="NUbXyAO43KxDZE8FnAZ2-65">
          <mxGeometry y="80" width="160" height="40" as="geometry" />
        </mxCell>
        <mxCell id="NUbXyAO43KxDZE8FnAZ2-71" value="a" style="group;fontFamily=Courier New, 宋体;" vertex="1" connectable="0" visible="0" parent="NUbXyAO43KxDZE8FnAZ2-70">
          <mxGeometry width="80" height="40" as="geometry">
            <mxRectangle width="80" height="40" as="alternateBounds" />
          </mxGeometry>
        </mxCell>
        <mxCell id="NUbXyAO43KxDZE8FnAZ2-72" value="*last" style="group;fontFamily=Courier New, 宋体;fontSize=24;verticalAlign=middle;align=center;" vertex="1" connectable="0" parent="NUbXyAO43KxDZE8FnAZ2-70">
          <mxGeometry x="80" width="80" height="40" as="geometry">
            <mxRectangle width="80" height="40" as="alternateBounds" />
          </mxGeometry>
        </mxCell>
        <mxCell id="NUbXyAO43KxDZE8FnAZ2-74" value="Node_n" style="shape=table;html=1;whiteSpace=wrap;startSize=40;container=1;collapsible=0;childLayout=tableLayout;fontStyle=1;align=center;shadow=0;labelBackgroundColor=none;strokeColor=#000000;fillColor=#FFFFFF;fontFamily=Courier New, 宋体;fontSize=24;verticalAlign=middle;" vertex="1" parent="1">
          <mxGeometry x="640" y="400" width="160" height="120" as="geometry" />
        </mxCell>
        <mxCell id="NUbXyAO43KxDZE8FnAZ2-75" value="" style="shape=partialRectangle;html=1;whiteSpace=wrap;collapsible=0;dropTarget=0;pointerEvents=0;fillColor=none;top=0;left=0;bottom=0;right=0;points=[[0,0.5],[1,0.5]];portConstraint=eastwest;fontFamily=Courier New, 宋体;fontSize=24;verticalAlign=middle;align=center;" vertex="1" parent="NUbXyAO43KxDZE8FnAZ2-74">
          <mxGeometry y="40" width="160" height="40" as="geometry" />
        </mxCell>
        <mxCell id="NUbXyAO43KxDZE8FnAZ2-76" value="" style="group;fontFamily=Courier New, 宋体;rowspan=2;colspan=1;verticalAlign=middle;align=center;" vertex="1" connectable="0" parent="NUbXyAO43KxDZE8FnAZ2-75">
          <mxGeometry width="80" height="80" as="geometry">
            <mxRectangle width="80" height="40" as="alternateBounds" />
          </mxGeometry>
        </mxCell>
        <mxCell id="NUbXyAO43KxDZE8FnAZ2-77" value="data&lt;br&gt;_n" style="shape=partialRectangle;html=1;whiteSpace=wrap;connectable=0;fillColor=none;top=0;left=0;bottom=0;right=0;overflow=hidden;fontFamily=Courier New, 宋体;fontSize=24;verticalAlign=middle;align=center;" vertex="1" parent="NUbXyAO43KxDZE8FnAZ2-76">
          <mxGeometry width="80" height="80" as="geometry" />
        </mxCell>
        <mxCell id="NUbXyAO43KxDZE8FnAZ2-78" value="*next" style="group;fontFamily=Courier New, 宋体;verticalAlign=middle;fontSize=24;align=center;" vertex="1" connectable="0" parent="NUbXyAO43KxDZE8FnAZ2-75">
          <mxGeometry x="80" width="80" height="40" as="geometry">
            <mxRectangle width="80" height="40" as="alternateBounds" />
          </mxGeometry>
        </mxCell>
        <mxCell id="NUbXyAO43KxDZE8FnAZ2-79" style="shape=partialRectangle;html=1;whiteSpace=wrap;collapsible=0;dropTarget=0;pointerEvents=0;fillColor=none;top=0;left=0;bottom=0;right=0;points=[[0,0.5],[1,0.5]];portConstraint=eastwest;fontFamily=Courier New, 宋体;fontSize=24;verticalAlign=middle;align=center;" vertex="1" parent="NUbXyAO43KxDZE8FnAZ2-74">
          <mxGeometry y="80" width="160" height="40" as="geometry" />
        </mxCell>
        <mxCell id="NUbXyAO43KxDZE8FnAZ2-80" value="a" style="group;fontFamily=Courier New, 宋体;" vertex="1" connectable="0" visible="0" parent="NUbXyAO43KxDZE8FnAZ2-79">
          <mxGeometry width="80" height="40" as="geometry">
            <mxRectangle width="80" height="40" as="alternateBounds" />
          </mxGeometry>
        </mxCell>
        <mxCell id="NUbXyAO43KxDZE8FnAZ2-81" value="*last" style="group;fontFamily=Courier New, 宋体;fontSize=24;verticalAlign=middle;align=center;" vertex="1" connectable="0" parent="NUbXyAO43KxDZE8FnAZ2-79">
          <mxGeometry x="80" width="80" height="40" as="geometry">
            <mxRectangle width="80" height="40" as="alternateBounds" />
          </mxGeometry>
        </mxCell>
        <mxCell id="NUbXyAO43KxDZE8FnAZ2-82" value="" style="edgeStyle=elbowEdgeStyle;endArrow=classic;html=1;fontFamily=Courier New, 宋体;fontSize=24;entryX=0.5;entryY=0;entryDx=0;entryDy=0;verticalAlign=middle;align=center;elbow=vertical;rounded=1;curved=0;" edge="1" parent="1" target="NUbXyAO43KxDZE8FnAZ2-57">
          <mxGeometry width="50" height="50" relative="1" as="geometry">
            <mxPoint x="820" y="440" as="sourcePoint" />
            <mxPoint x="510" y="329.99999999999994" as="targetPoint" />
            <Array as="points">
              <mxPoint x="570" y="380" />
              <mxPoint x="580" y="370" />
            </Array>
          </mxGeometry>
        </mxCell>
        <mxCell id="NUbXyAO43KxDZE8FnAZ2-84" value="" style="edgeStyle=segmentEdgeStyle;endArrow=none;html=1;curved=0;rounded=1;endFill=0;exitX=1;exitY=0.5;exitDx=0;exitDy=0;" edge="1" parent="1" source="NUbXyAO43KxDZE8FnAZ2-75">
          <mxGeometry width="50" height="50" relative="1" as="geometry">
            <mxPoint x="770" y="490" as="sourcePoint" />
            <mxPoint x="820" y="440" as="targetPoint" />
          </mxGeometry>
        </mxCell>
        <mxCell id="NUbXyAO43KxDZE8FnAZ2-86" style="edgeStyle=elbowEdgeStyle;rounded=1;orthogonalLoop=1;jettySize=auto;html=1;elbow=vertical;endArrow=none;endFill=0;strokeColor=#999999;" edge="1" parent="1">
          <mxGeometry relative="1" as="geometry">
            <mxPoint x="630" y="420" as="sourcePoint" />
            <mxPoint x="360" y="520" as="targetPoint" />
            <Array as="points">
              <mxPoint x="500" y="580" />
            </Array>
          </mxGeometry>
        </mxCell>
        <mxCell id="NUbXyAO43KxDZE8FnAZ2-88" value="..." style="text;html=1;align=center;verticalAlign=middle;resizable=0;points=[];autosize=1;fontSize=12;fontFamily=Courier New, 宋体;labelBackgroundColor=#ffffff;" vertex="1" parent="1">
          <mxGeometry x="570" y="545" width="50" height="30" as="geometry" />
        </mxCell>
      </root>
    </mxGraphModel>
  </diagram>
</mxfile>
